<!-- <svg width="458" height="491" viewBox="0 0 458 491" fill="none" xmlns="http://www.w3.org/2000/svg">
<path d="M303.457 452.526C234.219 490.701 144.538 505.671 88.8957 470.553C33.3422 435.103 12.1591 349.654 3.7109 269.744C-4.82601 190.165 -0.628185 116.126 37.6108 68.9353C75.9385 21.4138 148.816 0.168287 224.933 0C300.63 0.073637 379.744 20.5629 421.29 72.4682C462.748 124.704 466.727 208.026 444.153 280.332C421.822 353.059 372.696 414.35 303.457 452.526Z" fill="#32334C"/>
</svg> -->
<!--?xml version="1.0" standalone="no"?-->              <svg id="sw-js-blob-svg" viewBox="0 0 100 100" xmlns="http://www.w3.org/2000/svg">                    <defs>                         <linearGradient id="sw-gradient" x1="0" x2="1" y1="1" y2="0">                            <stop id="stop1" stop-color="rgba(222.058, 117.764, 68.404, 1)" offset="0%"></stop>                            <stop id="stop2" stop-color="rgba(210.354, 158.576, 73.112, 1)" offset="100%"></stop>                        </linearGradient>                    </defs>                <path fill="url(#sw-gradient)" d="M19.8,-33.2C26.8,-30.3,34.3,-27.2,38.7,-21.6C43.2,-16.1,44.6,-8,43.7,-0.5C42.8,7,39.6,14,35.6,20.3C31.5,26.7,26.7,32.3,20.7,37C14.6,41.6,7.3,45.2,-0.5,46C-8.3,46.9,-16.6,45,-22.2,40.1C-27.8,35.2,-30.7,27.3,-34.1,20.1C-37.5,12.9,-41.4,6.5,-42.6,-0.7C-43.8,-7.8,-42.2,-15.6,-38.2,-21.9C-34.3,-28.1,-28,-32.9,-21.2,-35.9C-14.5,-38.9,-7.2,-40.2,-0.4,-39.5C6.4,-38.8,12.9,-36.1,19.8,-33.2Z" width="100%" height="100%" transform="translate(50 50)" stroke-width="0" style="transition: all 0.3s ease 0s;" stroke="url(#sw-gradient)"></path>              </svg>